<?xml version="1.0" encoding="UTF-8"?>
<!-- Generator: visioncortex VTracer 0.6.12 -->
<svg version="1.1" xmlns="http://www.w3.org/2000/svg" width="96" height="96">
<path d="M0 0 C31.68 0 63.36 0 96 0 C96 31.68 96 63.36 96 96 C64.32 96 32.64 96 0 96 C0 64.32 0 32.64 0 0 Z " fill="#C4C4C4" transform="translate(0,0)"/>
<path d="M0 0 C19.8 0 39.6 0 60 0 C60 15.84 60 31.68 60 48 C56.04 48 52.08 48 48 48 C48 44.04 48 40.08 48 36 C44.04 36 40.08 36 36 36 C36 32.04 36 28.08 36 24 C35.278 24.01 35.278 24.01 31.625 24.062 C27.25 24.125 27.25 24.125 25 23 C20.923 22.703 16.837 22.722 12.75 22.688 C11.617 22.658 10.484 22.629 9.316 22.6 C-1.322 22.519 -1.322 22.519 -6 27 C-8.323 30.522 -8.232 33.581 -8.195 37.734 C-8.189 39.03 -8.182 40.325 -8.176 41.66 C-8.159 43.023 -8.142 44.387 -8.125 45.75 C-8.115 47.129 -8.106 48.508 -8.098 49.887 C-8.074 53.258 -8.041 56.629 -8 60 C-9.32 60 -10.64 60 -12 60 C-12 56.04 -12 52.08 -12 48 C-15.96 48 -19.92 48 -24 48 C-24 44.04 -24 40.08 -24 36 C-20.04 36 -16.08 36 -12 36 C-12 28.08 -12 20.16 -12 12 C-8.04 12 -4.08 12 0 12 C0 8.04 0 4.08 0 0 Z " fill="#C4C4C4" transform="translate(36,0)"/>
<path d="M0 0 C1.12 -0.02 2.239 -0.04 3.393 -0.061 C9.545 -0.057 13.885 -0.012 18.562 4.438 C22.738 10.242 22.04 15.972 22 22.875 C22.01 23.482 22.01 23.482 22.061 26.557 C22.054 37.64 22.054 37.64 17.562 42.438 C13.754 45.367 12.619 45.438 7.562 45.438 C7.562 50.058 7.562 54.678 7.562 59.438 C2.612 59.438 -2.337 59.438 -7.438 59.438 C-7.438 54.817 -7.438 50.197 -7.438 45.438 C-8.489 45.355 -9.541 45.273 -10.625 45.188 C-14.783 44.369 -16.475 43.4 -19.438 40.438 C-22.734 35.249 -21.806 28.99 -21.812 23.062 C-21.837 21.843 -21.861 20.624 -21.887 19.367 C-21.924 8.016 -21.924 8.016 -17.438 3.438 C-11.82 -0.544 -6.666 -0.042 0 0 Z " fill="#226EDC" transform="translate(48.4375,21.5625)"/>
<path d="M0 0 C2.31 0 4.62 0 7 0 C7 3.96 7 7.92 7 12 C10.96 12 14.92 12 19 12 C19 15.96 19 19.92 19 24 C22.96 24 26.92 24 31 24 C31 35.88 31 47.76 31 60 C27.04 60 23.08 60 19 60 C19 56.04 19 52.08 19 48 C15.04 48 11.08 48 7 48 C7 44.04 7 40.08 7 36 C6.01 36 5.02 36 4 36 C4.021 35.158 4.042 34.316 4.063 33.449 C4.132 30.297 4.182 27.146 4.22 23.994 C4.24 22.636 4.267 21.277 4.302 19.918 C4.649 6.013 4.649 6.013 0 0 Z " fill="#C4C4C4" transform="translate(65,24)"/>
<path d="M0 0 C1.32 0 2.64 0 4 0 C4 3.96 4 7.92 4 12 C7.96 12 11.92 12 16 12 C16 15.96 16 19.92 16 24 C19.96 24 23.92 24 28 24 C28 27.96 28 31.92 28 36 C16.12 36 4.24 36 -8 36 C-8 32.04 -8 28.08 -8 24 C-11.96 24 -15.92 24 -20 24 C-20 23.01 -20 22.02 -20 21 C-17.36 21 -14.72 21 -12 21 C-12 16.38 -12 11.76 -12 7 C-10.577 6.588 -9.154 6.175 -7.688 5.75 C-3.824 4.488 -2.251 3.435 0 0 Z " fill="#F5F5F5" transform="translate(68,60)"/>
<path d="M0 0 C2.64 0 5.28 0 8 0 C7.345 0.847 6.69 1.694 6.016 2.566 C2.636 8.48 3.581 15.347 3.75 21.938 C3.77 23.303 3.788 24.668 3.805 26.033 C3.852 29.356 3.917 32.678 4 36 C2.68 36 1.36 36 0 36 C0 32.04 0 28.08 0 24 C-3.96 24 -7.92 24 -12 24 C-12 20.04 -12 16.08 -12 12 C-8.04 12 -4.08 12 0 12 C0 8.04 0 4.08 0 0 Z " fill="#FFFFFF" transform="translate(24,24)"/>
<path d="M0 0 C1.65 0 3.3 0 5 0 C5.833 0.833 5.833 0.833 10 5 C12.334 5.97 14.514 6.464 17 7 C17 11.62 17 16.24 17 21 C19.31 21 21.62 21 24 21 C24 21.99 24 22.98 24 24 C20.04 24 16.08 24 12 24 C12 20.04 12 16.08 12 12 C8.04 12 4.08 12 0 12 C0 8.04 0 4.08 0 0 Z " fill="#CECECE" transform="translate(24,60)"/>
<path d="M0 0 C3.96 0 7.92 0 12 0 C12 3.96 12 7.92 12 12 C8.04 12 4.08 12 0 12 C0 8.04 0 4.08 0 0 Z " fill="#FFFFFF" transform="translate(84,84)"/>
<path d="M0 0 C3.96 0 7.92 0 12 0 C12 3.96 12 7.92 12 12 C8.04 12 4.08 12 0 12 C0 8.04 0 4.08 0 0 Z " fill="#C4C4C4" transform="translate(72,84)"/>
<path d="M0 0 C3.96 0 7.92 0 12 0 C12 3.96 12 7.92 12 12 C8.04 12 4.08 12 0 12 C0 8.04 0 4.08 0 0 Z " fill="#FFFFFF" transform="translate(60,84)"/>
<path d="M0 0 C3.96 0 7.92 0 12 0 C12 3.96 12 7.92 12 12 C8.04 12 4.08 12 0 12 C0 8.04 0 4.08 0 0 Z " fill="#C4C4C4" transform="translate(48,84)"/>
<path d="M0 0 C3.96 0 7.92 0 12 0 C12 3.96 12 7.92 12 12 C8.04 12 4.08 12 0 12 C0 8.04 0 4.08 0 0 Z " fill="#FFFFFF" transform="translate(36,84)"/>
<path d="M0 0 C3.96 0 7.92 0 12 0 C12 3.96 12 7.92 12 12 C8.04 12 4.08 12 0 12 C0 8.04 0 4.08 0 0 Z " fill="#C4C4C4" transform="translate(24,84)"/>
<path d="M0 0 C3.96 0 7.92 0 12 0 C12 3.96 12 7.92 12 12 C8.04 12 4.08 12 0 12 C0 8.04 0 4.08 0 0 Z " fill="#FFFFFF" transform="translate(12,84)"/>
<path d="M0 0 C3.96 0 7.92 0 12 0 C12 3.96 12 7.92 12 12 C8.04 12 4.08 12 0 12 C0 8.04 0 4.08 0 0 Z " fill="#C4C4C4" transform="translate(0,84)"/>
<path d="M0 0 C3.96 0 7.92 0 12 0 C12 3.96 12 7.92 12 12 C8.04 12 4.08 12 0 12 C0 8.04 0 4.08 0 0 Z " fill="#C4C4C4" transform="translate(84,72)"/>
<path d="M0 0 C3.96 0 7.92 0 12 0 C12 3.96 12 7.92 12 12 C8.04 12 4.08 12 0 12 C0 8.04 0 4.08 0 0 Z " fill="#FFFFFF" transform="translate(72,72)"/>
<path d="M0 0 C3.96 0 7.92 0 12 0 C12 3.96 12 7.92 12 12 C8.04 12 4.08 12 0 12 C0 8.04 0 4.08 0 0 Z " fill="#C4C4C4" transform="translate(60,72)"/>
<path d="M0 0 C3.96 0 7.92 0 12 0 C12 3.96 12 7.92 12 12 C8.04 12 4.08 12 0 12 C0 8.04 0 4.08 0 0 Z " fill="#FFFFFF" transform="translate(24,72)"/>
<path d="M0 0 C3.96 0 7.92 0 12 0 C12 3.96 12 7.92 12 12 C8.04 12 4.08 12 0 12 C0 8.04 0 4.08 0 0 Z " fill="#C4C4C4" transform="translate(12,72)"/>
<path d="M0 0 C3.96 0 7.92 0 12 0 C12 3.96 12 7.92 12 12 C8.04 12 4.08 12 0 12 C0 8.04 0 4.08 0 0 Z " fill="#FFFFFF" transform="translate(0,72)"/>
<path d="M0 0 C3.96 0 7.92 0 12 0 C12 3.96 12 7.92 12 12 C8.04 12 4.08 12 0 12 C0 8.04 0 4.08 0 0 Z " fill="#FFFFFF" transform="translate(84,60)"/>
<path d="M0 0 C3.96 0 7.92 0 12 0 C12 3.96 12 7.92 12 12 C8.04 12 4.08 12 0 12 C0 8.04 0 4.08 0 0 Z " fill="#C4C4C4" transform="translate(72,60)"/>
<path d="M0 0 C3.96 0 7.92 0 12 0 C12 3.96 12 7.92 12 12 C8.04 12 4.08 12 0 12 C0 8.04 0 4.08 0 0 Z " fill="#FFFFFF" transform="translate(12,60)"/>
<path d="M0 0 C3.96 0 7.92 0 12 0 C12 3.96 12 7.92 12 12 C8.04 12 4.08 12 0 12 C0 8.04 0 4.08 0 0 Z " fill="#C4C4C4" transform="translate(0,60)"/>
<path d="M0 0 C3.96 0 7.92 0 12 0 C12 3.96 12 7.92 12 12 C8.04 12 4.08 12 0 12 C0 8.04 0 4.08 0 0 Z " fill="#C4C4C4" transform="translate(84,48)"/>
<path d="M0 0 C3.96 0 7.92 0 12 0 C12 3.96 12 7.92 12 12 C8.04 12 4.08 12 0 12 C0 8.04 0 4.08 0 0 Z " fill="#FFFFFF" transform="translate(72,48)"/>
<path d="M0 0 C3.96 0 7.92 0 12 0 C12 3.96 12 7.92 12 12 C8.04 12 4.08 12 0 12 C0 8.04 0 4.08 0 0 Z " fill="#C4C4C4" transform="translate(12,48)"/>
<path d="M0 0 C3.96 0 7.92 0 12 0 C12 3.96 12 7.92 12 12 C8.04 12 4.08 12 0 12 C0 8.04 0 4.08 0 0 Z " fill="#FFFFFF" transform="translate(0,48)"/>
<path d="M0 0 C3.96 0 7.92 0 12 0 C12 3.96 12 7.92 12 12 C8.04 12 4.08 12 0 12 C0 8.04 0 4.08 0 0 Z " fill="#FFFFFF" transform="translate(84,36)"/>
<path d="M0 0 C3.96 0 7.92 0 12 0 C12 3.96 12 7.92 12 12 C8.04 12 4.08 12 0 12 C0 8.04 0 4.08 0 0 Z " fill="#C4C4C4" transform="translate(0,36)"/>
<path d="M0 0 C3.96 0 7.92 0 12 0 C12 3.96 12 7.92 12 12 C8.04 12 4.08 12 0 12 C0 8.04 0 4.08 0 0 Z " fill="#C4C4C4" transform="translate(84,24)"/>
<path d="M0 0 C3.96 0 7.92 0 12 0 C12 3.96 12 7.92 12 12 C8.04 12 4.08 12 0 12 C0 8.04 0 4.08 0 0 Z " fill="#FFFFFF" transform="translate(72,24)"/>
<path d="M0 0 C3.96 0 7.92 0 12 0 C12 3.96 12 7.92 12 12 C8.04 12 4.08 12 0 12 C0 8.04 0 4.08 0 0 Z " fill="#C4C4C4" transform="translate(12,24)"/>
<path d="M0 0 C3.96 0 7.92 0 12 0 C12 3.96 12 7.92 12 12 C8.04 12 4.08 12 0 12 C0 8.04 0 4.08 0 0 Z " fill="#FFFFFF" transform="translate(0,24)"/>
<path d="M0 0 C3.96 0 7.92 0 12 0 C12 3.96 12 7.92 12 12 C8.04 12 4.08 12 0 12 C0 8.04 0 4.08 0 0 Z " fill="#FFFFFF" transform="translate(84,12)"/>
<path d="M0 0 C3.96 0 7.92 0 12 0 C12 3.96 12 7.92 12 12 C8.04 12 4.08 12 0 12 C0 8.04 0 4.08 0 0 Z " fill="#C4C4C4" transform="translate(72,12)"/>
<path d="M0 0 C3.96 0 7.92 0 12 0 C12 3.96 12 7.92 12 12 C8.04 12 4.08 12 0 12 C0 8.04 0 4.08 0 0 Z " fill="#FFFFFF" transform="translate(12,12)"/>
<path d="M0 0 C3.96 0 7.92 0 12 0 C12 3.96 12 7.92 12 12 C8.04 12 4.08 12 0 12 C0 8.04 0 4.08 0 0 Z " fill="#C4C4C4" transform="translate(0,12)"/>
<path d="M0 0 C3.96 0 7.92 0 12 0 C12 3.96 12 7.92 12 12 C8.04 12 4.08 12 0 12 C0 8.04 0 4.08 0 0 Z " fill="#C4C4C4" transform="translate(84,0)"/>
<path d="M0 0 C3.96 0 7.92 0 12 0 C12 3.96 12 7.92 12 12 C8.04 12 4.08 12 0 12 C0 8.04 0 4.08 0 0 Z " fill="#FFFFFF" transform="translate(72,0)"/>
<path d="M0 0 C3.96 0 7.92 0 12 0 C12 3.96 12 7.92 12 12 C8.04 12 4.08 12 0 12 C0 8.04 0 4.08 0 0 Z " fill="#C4C4C4" transform="translate(60,0)"/>
<path d="M0 0 C3.96 0 7.92 0 12 0 C12 3.96 12 7.92 12 12 C8.04 12 4.08 12 0 12 C0 8.04 0 4.08 0 0 Z " fill="#FFFFFF" transform="translate(48,0)"/>
<path d="M0 0 C3.96 0 7.92 0 12 0 C12 3.96 12 7.92 12 12 C8.04 12 4.08 12 0 12 C0 8.04 0 4.08 0 0 Z " fill="#FFFFFF" transform="translate(24,0)"/>
<path d="M0 0 C3.96 0 7.92 0 12 0 C12 3.96 12 7.92 12 12 C8.04 12 4.08 12 0 12 C0 8.04 0 4.08 0 0 Z " fill="#FFFFFF" transform="translate(0,0)"/>
<path d="M0 0 C3.96 0 7.92 0 12 0 C12 3.63 12 7.26 12 11 C9.475 12.262 7.688 12.099 4.875 12.062 C3.266 12.042 1.657 12.021 0 12 C0 8.04 0 4.08 0 0 Z " fill="#C4C4C4" transform="translate(24,12)"/>
<path d="M0 0 C3.96 0 7.92 0 12 0 C12 3.96 12 7.92 12 12 C3.375 12.25 3.375 12.25 0 10 C-0.414 6.633 -0.131 3.403 0 0 Z " fill="#FFFFFF" transform="translate(60,12)"/>
<path d="M0 0 C3.338 0.668 4.506 1.767 6.5 4.5 C7 7 7 7 6.5 9.5 C4.506 12.233 3.338 13.332 0 14 C-3.338 13.332 -4.506 12.233 -6.5 9.5 C-7 7 -7 7 -6.5 4.5 C-4.506 1.767 -3.338 0.668 0 0 Z " fill="#EEF6FF" transform="translate(48.5,35.5)"/>
<path d="M0 0 C2.64 0 5.28 0 8 0 C7.345 0.847 6.69 1.694 6.016 2.566 C2.636 8.48 3.581 15.347 3.75 21.938 C3.77 23.303 3.788 24.668 3.805 26.033 C3.852 29.356 3.917 32.678 4 36 C2.68 36 1.36 36 0 36 C0 24.12 0 12.24 0 0 Z " fill="#EEEEEE" transform="translate(24,24)"/>
<path d="M0 0 C3.96 0 7.92 0 12 0 C12 3.3 12 6.6 12 10 C8.04 10 4.08 10 0 10 C0 6.7 0 3.4 0 0 Z " fill="#C4C4C4" transform="translate(48,12)"/>
<path d="M0 0 C3.96 0 7.92 0 12 0 C12 3.3 12 6.6 12 10 C8.04 10 4.08 10 0 10 C0 6.7 0 3.4 0 0 Z " fill="#FFFFFF" transform="translate(36,12)"/>
<path d="M0 0 C2.31 0 4.62 0 7 0 C7 11.88 7 23.76 7 36 C6.01 36 5.02 36 4 36 C4.021 35.158 4.042 34.316 4.063 33.449 C4.132 30.297 4.182 27.146 4.22 23.994 C4.24 22.636 4.267 21.277 4.302 19.918 C4.649 6.013 4.649 6.013 0 0 Z " fill="#D3D3D3" transform="translate(65,24)"/>
<path d="M0 0 C1.65 0 3.3 0 5 0 C5 2.97 5 5.94 5 9 C7.31 9 9.62 9 12 9 C12 9.99 12 10.98 12 12 C8.04 12 4.08 12 0 12 C0 8.04 0 4.08 0 0 Z " fill="#C4C4C4" transform="translate(36,72)"/>
<path d="M0 0 C1.32 0 2.64 0 4 0 C4 3.96 4 7.92 4 12 C0.04 12 -3.92 12 -8 12 C-8 11.01 -8 10.02 -8 9 C-5.36 9 -2.72 9 0 9 C0 6.03 0 3.06 0 0 Z " fill="#FFFFFF" transform="translate(56,72)"/>
</svg>
