<?xml version="1.0" encoding="UTF-8"?>
<!-- Generator: visioncortex VTracer 0.6.12 -->
<svg version="1.1" xmlns="http://www.w3.org/2000/svg" width="112" height="112">
<path d="M0 0 C33.99 0 67.98 0 103 0 C99.393 4.208 95.955 8.136 92 11.938 C80.675 23.121 80.675 23.121 80.625 28.5 C80.789 29.969 80.789 29.969 81 31 C81.291 30.919 81.583 30.838 81.883 30.754 C83.465 30.51 84.451 30.548 86 31 C92.691 35.943 95.228 44.276 96.5 52.098 C97.732 61.318 97.539 72.093 92 80 C91.046 81.071 90.056 82.025 89 83 C88.505 82.835 88.505 82.835 86 82 C86 80.68 86 79.36 86 78 C85.701 78.072 85.701 78.072 84.188 78.438 C84.019 78.478 84.019 78.478 83.168 78.684 C82 79 82 79 80.68 79.652 C78.111 80.184 76.296 79.125 73.938 78.125 C68.626 76.013 63.683 75.247 58 75 C58.253 74.876 58.506 74.752 58.767 74.624 C68.4 69.863 68.4 69.863 70.527 64.832 C71.921 59.432 71.986 53.842 69.125 48.938 C67.947 47.084 67.102 45.767 65 45 C65.165 44.67 65.165 44.67 66 43 C66.66 43.165 66.66 43.165 70 44 C69.29 41.711 68.663 40.474 66.695 39.066 C59.978 35.708 52.139 36.343 45 38 C45.219 40.145 45.362 41.442 47.02 42.893 C48.341 43.739 49.681 44.505 51.062 45.25 C51.535 45.518 52.007 45.786 52.494 46.062 C53.657 46.72 54.825 47.365 56 48 C55.466 49.688 55.113 50.662 54 52 C51.902 53.057 49.707 53.609 47.438 54.188 C46.248 54.512 45.059 54.839 43.871 55.168 C43.344 55.305 42.818 55.442 42.275 55.583 C41 56 41 56 40 57 C39.616 59.815 39.384 62.761 40.672 65.352 C41.4 66.306 42.134 67.17 43 68 C42.67 68.66 42.34 69.32 42 70 C39.65 68.778 37.302 67.551 34.957 66.32 C34.16 65.902 33.363 65.486 32.565 65.072 C25.062 61.17 25.062 61.17 22.766 59.27 C20.754 57.615 18.536 57.301 16 57 C19.766 72.696 19.766 72.696 23.266 77.703 C24.139 79.245 24.144 80.256 24 82 C23.34 82 22.68 82 22 82 C21.881 82.443 21.763 82.887 21.641 83.344 C20.929 85.185 20.148 86.12 18.75 87.5 C18.353 87.902 17.956 88.304 17.547 88.719 C16.345 89.803 15.068 90.547 13.656 91.332 C10.541 93.145 8.221 95.594 5.75 98.188 C4.872 99.1 3.992 100.01 3.109 100.918 C2.727 101.318 2.346 101.718 1.952 102.13 C1 103 1 103 0 103 C0 69.01 0 35.02 0 0 Z " fill="#D79C66" transform="translate(0,0)"/>
<path d="M0 0 C0.28 0.485 0.559 0.969 0.848 1.469 C8.592 14.559 8.592 14.559 13.57 16.664 C14.553 16.885 15.536 17.105 16.52 17.324 C18.704 18.322 19.839 19.91 21.25 21.812 C21.496 22.144 21.743 22.476 21.996 22.818 C28.45 32.074 28.844 44.608 27.307 55.406 C26.265 60.819 24.038 65.274 20 69 C19.01 68.67 18.02 68.34 17 68 C17 66.68 17 65.36 17 64 C16.701 64.072 16.701 64.072 15.188 64.438 C14.851 64.519 14.515 64.6 14.168 64.684 C13 65 13 65 11.68 65.652 C9.111 66.184 7.296 65.125 4.938 64.125 C-0.374 62.013 -5.317 61.247 -11 61 C-10.747 60.876 -10.494 60.752 -10.233 60.624 C-0.6 55.863 -0.6 55.863 1.527 50.832 C2.921 45.432 2.986 39.842 0.125 34.938 C-1.053 33.084 -1.898 31.767 -4 31 C-3.67 30.34 -3.34 29.68 -3 29 C-1.68 29.33 -0.36 29.66 1 30 C0.257 27.605 -0.303 26.423 -2.48 25.102 C-6.24 23.425 -9.911 22.434 -14 22 C-13.74 13.105 -9.64 7.086 -3.332 1.031 C-2 0 -2 0 0 0 Z " fill="#FDDE46" transform="translate(69,14)"/>
<path d="M0 0 C0.33 2.97 0.66 5.94 1 9 C3.64 7.02 6.28 5.04 9 3 C9.66 3.33 10.32 3.66 11 4 C11 6.64 11 9.28 11 12 C19.574 18.574 19.574 18.574 24 21 C23.466 22.688 23.113 23.662 22 25 C19.902 26.057 17.707 26.609 15.438 27.188 C14.248 27.512 13.059 27.839 11.871 28.168 C11.344 28.305 10.818 28.442 10.275 28.583 C9 29 9 29 8 30 C7.616 32.815 7.384 35.761 8.672 38.352 C9.4 39.306 10.134 40.17 11 41 C10.67 41.66 10.34 42.32 10 43 C7.65 41.778 5.302 40.551 2.957 39.32 C2.16 38.902 1.363 38.486 0.565 38.072 C-7.045 34.114 -7.045 34.114 -10.151 31.57 C-11.656 30.56 -13.234 30.315 -15 30 C-16.316 20.935 -13.009 13.395 -8 6 C-6.223 3.858 -3.009 0 0 0 Z " fill="#FCA920" transform="translate(32,27)"/>
<path d="M0 0 C0.983 0.451 1.961 0.911 2.938 1.375 C3.21 1.503 3.21 1.503 4.59 2.148 C6.021 3.013 6.468 3.45 7 5 C7.338 5.037 7.675 5.075 8.023 5.113 C11.747 5.662 11.747 5.662 13.125 7.5 C13.414 7.995 13.703 8.49 14 9 C14.99 9.33 15.98 9.66 17 10 C16.67 12.64 16.34 15.28 16 18 C18.97 18.33 21.94 18.66 25 19 C25 15.7 25 12.4 25 9 C25.33 9 25.66 9 26 9 C27.394 20.679 26.921 29.711 21 40 C20.175 40.165 20.175 40.165 16 41 C16 39.35 16 37.7 16 36 C15.402 36.144 14.804 36.289 14.188 36.438 C13.851 36.519 13.515 36.6 13.168 36.684 C12 37 12 37 10.68 37.652 C8.111 38.184 6.296 37.125 3.938 36.125 C-1.374 34.013 -6.317 33.247 -12 33 C-11.747 32.876 -11.494 32.752 -11.233 32.624 C-1.6 27.863 -1.6 27.863 0.527 22.832 C1.921 17.432 1.986 11.842 -0.875 6.938 C-2.053 5.084 -2.898 3.767 -5 3 C-4.67 2.34 -4.34 1.68 -4 1 C-2.68 1.33 -1.36 1.66 0 2 C0 1.34 0 0.68 0 0 Z " fill="#FDAC4B" transform="translate(70,42)"/>
<path d="M0 0 C0.386 0.044 0.772 0.088 1.17 0.133 C1.369 0.159 1.369 0.159 2.379 0.289 C2.576 0.311 2.576 0.311 3.576 0.422 C7.926 0.943 7.926 0.943 9.941 1.914 C10.672 3.105 10.672 3.105 11.129 4.477 C11.287 4.932 11.446 5.387 11.609 5.855 C11.719 6.205 11.829 6.554 11.941 6.914 C12.931 6.914 13.921 6.914 14.941 6.914 C15.819 9.46 15.819 9.46 15.941 10.914 C15.285 11.921 14.617 12.92 13.941 13.914 C13.764 15.594 13.822 17.231 13.941 18.914 C10.03 16.154 7.216 13.213 4.566 9.227 C4.304 8.834 4.041 8.442 3.771 8.037 C1.941 5.185 1.941 5.185 1.941 2.914 C-6.038 9.236 -9.944 14.872 -12.059 24.914 C-15.359 25.574 -18.659 26.234 -22.059 26.914 C-22.389 27.904 -22.719 28.894 -23.059 29.914 C-24.051 29.172 -24.051 29.172 -25.059 27.914 C-25.204 26.467 -25.25 25.224 -25.184 23.789 C-25.175 23.417 -25.166 23.044 -25.156 22.66 C-25.133 21.745 -25.097 20.829 -25.059 19.914 C-28.213 21.737 -31.196 23.659 -34.059 25.914 C-35.26 24.712 -35.229 24.281 -35.375 22.629 C-35.417 22.181 -35.459 21.733 -35.502 21.271 C-35.541 20.803 -35.581 20.334 -35.621 19.852 C-35.664 19.379 -35.707 18.907 -35.752 18.42 C-35.858 17.252 -35.96 16.083 -36.059 14.914 C-35.729 14.584 -35.399 14.254 -35.059 13.914 C-33.495 14.026 -31.933 14.156 -30.371 14.289 C-30.154 14.305 -30.154 14.305 -29.053 14.383 C-25.772 14.674 -23.048 15.545 -20.059 16.914 C-19.887 16.725 -19.887 16.725 -19.021 15.768 C-17.734 14.351 -16.443 12.937 -15.151 11.525 C-14.595 10.916 -14.041 10.306 -13.487 9.695 C-4.252 -0.499 -4.252 -0.499 0 0 Z " fill="#C38C68" transform="translate(67.05859375,11.0859375)"/>
<path d="M0 0 C0.99 0.33 1.98 0.66 3 1 C2.625 1.378 2.25 1.755 1.863 2.145 C-5.965 10.394 -9.3 19.966 -9.107 31.313 C-8.685 37.977 -6.457 44.039 -2.77 49.562 C-1.902 51.183 -1.844 52.189 -2 54 C-2.66 54 -3.32 54 -4 54 C-4.33 54.99 -4.66 55.98 -5 57 C-5.495 57.165 -5.495 57.165 -8 58 C-8.103 57.567 -8.206 57.134 -8.312 56.688 C-8.976 55.059 -9.247 54.694 -10.5 53.625 C-12.503 51.798 -12.702 49.598 -13 47 C-13.66 47 -14.32 47 -15 47 C-17.886 38.538 -18.895 30.566 -16 22 C-15.34 22 -14.68 22 -14 22 C-13.897 21.464 -13.794 20.927 -13.688 20.375 C-11.611 12.186 -6 5.64 0 0 Z " fill="#C18B62" transform="translate(26,28)"/>
<path d="M0 0 C3.733 0.519 6.585 1.646 9.812 3.562 C10.219 3.796 10.626 4.03 11.045 4.271 C12.034 4.842 13.018 5.418 14 6 C13.372 6.334 12.741 6.664 12.109 6.992 C11.934 7.084 11.934 7.084 11.046 7.55 C9.661 8.146 8.486 8.149 7 8 C7.33 9.65 7.66 11.3 8 13 C9.155 13.495 9.155 13.495 15 16 C15.33 17.98 15.66 19.96 16 22 C16.66 21.67 17.32 21.34 18 21 C18.121 21.459 18.242 21.918 18.367 22.391 C18.535 23.004 18.702 23.618 18.875 24.25 C19.037 24.853 19.2 25.457 19.367 26.078 C19.999 28.186 20.976 30.056 22 32 C19.829 30.939 17.66 29.873 15.494 28.802 C14.759 28.44 14.024 28.079 13.289 27.72 C9.066 25.658 5.166 23.497 1.307 20.808 C-0.453 19.72 -1.968 19.313 -4 19 C-4.554 11.628 -3.52 6.506 0 0 Z " fill="#FC672C" transform="translate(21,38)"/>
<path d="M0 0 C0.33 0 0.66 0 1 0 C2.394 11.679 1.921 20.711 -4 31 C-5.65 31.33 -7.3 31.66 -9 32 C-9 30.35 -9 28.7 -9 27 C-9.598 27.144 -10.196 27.289 -10.812 27.438 C-10.981 27.478 -10.981 27.478 -11.832 27.684 C-13 28 -13 28 -14.32 28.652 C-16.889 29.184 -18.704 28.125 -21.062 27.125 C-26.374 25.013 -31.317 24.247 -37 24 C-36.869 23.937 -36.869 23.937 -36.206 23.62 C-34.242 22.661 -32.465 21.655 -30.688 20.375 C-27.906 18.74 -25.296 18.208 -22.08 18.715 C-18.155 19.751 -14.507 22.005 -11 24 C-10.01 23.34 -9.02 22.68 -8 22 C-8 22.66 -8 23.32 -8 24 C-7.01 24 -6.02 24 -5 24 C-1.513 16.025 -0.241 8.681 0 0 Z " fill="#FE5339" transform="translate(95,51)"/>
<path d="M0 0 C0.33 2.97 0.66 5.94 1 9 C3.31 9.66 5.62 10.32 8 11 C8.66 12.98 9.32 14.96 10 17 C11.32 17 12.64 17 14 17 C14.103 17.454 14.206 17.907 14.312 18.375 C15.16 20.379 16.138 20.947 18 22 C11.317 22.347 11.317 22.347 8.688 20.938 C4.859 19.088 0.051 20.403 -4 21 C-4 20.34 -4 19.68 -4 19 C-2.35 18.34 -0.7 17.68 1 17 C-0.266 16.158 -1.537 15.327 -2.812 14.5 C-3.169 14.262 -3.525 14.023 -3.893 13.777 C-6.003 12.422 -7.403 11.672 -10 12 C-9.511 7.761 -6.918 4.952 -4 2 C-1.285 0 -1.285 0 0 0 Z " fill="#FE9F1A" transform="translate(32,27)"/>
<path d="M0 0 C0.99 0.33 1.98 0.66 3 1 C3 1.66 3 2.32 3 3 C4.98 3.66 6.96 4.32 9 5 C9 5.99 9 6.98 9 8 C10.65 7.67 12.3 7.34 14 7 C14 7.66 14 8.32 14 9 C15.32 9.33 16.64 9.66 18 10 C18 10.66 18 11.32 18 12 C18.254 12.121 18.508 12.242 18.77 12.367 C20.971 13.439 22.994 14.596 25 16 C25 16.66 25 17.32 25 18 C25.598 18.268 26.196 18.536 26.812 18.812 C30.569 20.711 32.304 23.216 34 27 C34.99 27 35.98 27 37 27 C37.165 26.505 37.165 26.505 38 24 C38.165 25.485 38.165 25.485 39 33 C36.03 32.67 33.06 32.34 30 32 C30.33 29.36 30.66 26.72 31 24 C29.68 23.67 28.36 23.34 27 23 C26.67 22.01 26.34 21.02 26 20 C24.35 20 22.7 20 21 20 C20.67 19.01 20.34 18.02 20 17 C19.464 16.938 18.927 16.876 18.375 16.812 C16.159 16.28 14.728 15.043 13.062 13.562 C8.719 9.745 4.655 8.789 -1 8 C-0.67 5.36 -0.34 2.72 0 0 Z " fill="#FDCD44" transform="translate(56,28)"/>
<path d="M0 0 C1.32 0.99 2.64 1.98 4 3 C3.366 5.96 2.43 8.33 1 11 C2.65 11.99 4.3 12.98 6 14 C7.12 12.357 8.109 10.783 9 9 C9.825 9.165 9.825 9.165 14 10 C13.551 11.483 13.091 12.96 12.625 14.438 C12.562 14.648 12.562 14.648 12.242 15.713 C12.113 16.116 11.984 16.519 11.852 16.934 C11.736 17.305 11.621 17.677 11.502 18.06 C10.868 19.246 10.23 19.518 9 20 C8.01 19.34 7.02 18.68 6 18 C5.01 18.66 4.02 19.32 3 20 C2.879 19.927 2.879 19.927 2.269 19.557 C-2.477 16.712 -6.403 14.431 -12 14 C-11.01 11.69 -10.02 9.38 -9 7 C-8.67 7.99 -8.34 8.98 -8 10 C-6.02 9.67 -4.04 9.34 -2 9 C-1.34 6.03 -0.68 3.06 0 0 Z " fill="#FC9138" transform="translate(80,56)"/>
<path d="M0 0 C0.33 0 0.66 0 1 0 C0.992 0.168 0.992 0.168 0.952 1.019 C0.536 11.367 1.363 20.772 7.23 29.562 C8.098 31.183 8.156 32.189 8 34 C7.34 34 6.68 34 6 34 C5.67 34.99 5.34 35.98 5 37 C4.505 37.165 4.505 37.165 2 38 C2 35.69 2 33.38 2 31 C1.34 31 0.68 31 0 31 C-2.481 26.693 -2.306 22.221 -2.261 17.407 C-2.25 16.069 -2.261 14.731 -2.273 13.393 C-2.28 8.556 -2.002 4.477 0 0 Z " fill="#A47158" transform="translate(16,48)"/>
<path d="M0 0 C0.737 1.16 1.063 1.711 0.762 3.082 C0.596 3.465 0.429 3.848 0.258 4.242 C0.079 4.669 -0.101 5.096 -0.285 5.535 C-0.48 5.977 -0.674 6.419 -0.875 6.875 C-1.25 7.746 -1.622 8.619 -1.992 9.492 C-2.161 9.877 -2.33 10.263 -2.503 10.66 C-3.146 12.393 -3.552 14.207 -4 16 C-7.3 16.66 -10.6 17.32 -14 18 C-14.33 18.99 -14.66 19.98 -15 21 C-15.992 20.258 -15.992 20.258 -17 19 C-17.145 17.553 -17.191 16.31 -17.125 14.875 C-17.116 14.502 -17.107 14.13 -17.098 13.746 C-17.074 12.83 -17.038 11.915 -17 11 C-16.713 10.966 -16.426 10.931 -16.13 10.896 C-7.889 9.825 -7.889 9.825 -5.809 7.895 C-5.125 6.625 -5.125 6.625 -4.582 5.309 C-3.594 3.088 -1.775 1.613 0 0 Z " fill="#A8785A" transform="translate(59,20)"/>
<path d="M0 0 C0.349 5.825 0.305 9.984 -3 15 C-4.404 13.861 -4.959 13.319 -5.195 11.492 C-5.184 11.225 -5.184 11.225 -5.125 9.875 C-5.107 9.336 -5.089 8.797 -5.07 8.242 C-5.047 7.832 -5.024 7.422 -5 7 C-5.398 6.963 -5.797 6.925 -6.207 6.887 C-11.077 6.282 -11.077 6.282 -12.875 4.562 C-14 3 -14 3 -14 1 C-9.422 -1.783 -5.016 -0.809 0 0 Z " fill="#FEB223" transform="translate(41,47)"/>
<path d="M0 0 C5.543 1.214 9.328 2.912 13.129 7.305 C14.331 9.645 14.221 11.601 14.125 14.188 C14.116 14.651 14.107 15.114 14.098 15.592 C14.074 16.728 14.038 17.864 14 19 C12.02 18.67 10.04 18.34 8 18 C7.951 17.752 7.951 17.752 7.703 16.496 C6.635 11.502 5.076 7.146 2 3 C0.875 2.309 0.875 2.309 0 2 C0 1.34 0 0.68 0 0 Z " fill="#FDD43B" transform="translate(65,43)"/>
<path d="M0 0 C2.97 0.33 5.94 0.66 9 1 C9.33 1.99 9.66 2.98 10 4 C10.99 4 11.98 4 13 4 C13.878 6.546 13.878 6.546 14 8 C13.343 9.007 12.676 10.006 12 11 C11.823 12.68 11.88 14.317 12 16 C8.089 13.24 5.274 10.299 2.625 6.312 C2.494 6.116 2.494 6.116 1.83 5.123 C0 2.271 0 2.271 0 0 Z " fill="#B17D68" transform="translate(69,14)"/>
<path d="M0 0 C0.291 0.326 0.583 0.652 0.883 0.988 C3.965 4.274 6.823 6.235 11 8 C11 8.66 11 9.32 11 10 C12.32 10.66 13.64 11.32 15 12 C15 12.66 15 13.32 15 14 C16.32 14.66 17.64 15.32 19 16 C18.657 15.964 18.315 15.929 17.962 15.892 C16.392 15.734 14.821 15.585 13.25 15.438 C12.711 15.381 12.172 15.325 11.617 15.268 C8.473 14.98 6.008 15.014 3 16 C3 15.34 3 14.68 3 14 C4.65 13.34 6.3 12.68 8 12 C6.734 11.158 5.463 10.327 4.188 9.5 C3.831 9.262 3.475 9.023 3.107 8.777 C0.997 7.422 -0.403 6.672 -3 7 C-2.417 4.18 -1.727 2.303 0 0 Z " fill="#FE8E1A" transform="translate(25,32)"/>
<path d="M0 0 C3.3 0.66 6.6 1.32 10 2 C9.67 3.65 9.34 5.3 9 7 C7.35 6.67 5.7 6.34 4 6 C3.34 7.98 2.68 9.96 2 12 C-2.579 10.554 -2.579 10.554 -3.777 8.977 C-4.312 7.875 -4.312 7.875 -5 6 C-3.35 4.02 -1.7 2.04 0 0 Z " fill="#FEC03B" transform="translate(85,59)"/>
<path d="M0 0 C0.66 0.33 1.32 0.66 2 1 C1.763 1.433 1.526 1.867 1.281 2.313 C0.395 3.936 -0.485 5.562 -1.363 7.189 C-1.743 7.89 -2.124 8.59 -2.507 9.29 C-3.059 10.3 -3.606 11.314 -4.152 12.328 C-4.322 12.636 -4.492 12.943 -4.667 13.26 C-6.644 16.965 -7.154 20.424 -7.133 24.59 C-7.134 25.016 -7.135 25.443 -7.136 25.882 C-7.136 26.779 -7.135 27.675 -7.13 28.572 C-7.125 29.93 -7.13 31.288 -7.137 32.646 C-7.14 36.886 -7.086 40.871 -6 45 C-5.34 45 -4.68 45 -4 45 C-4.33 46.32 -4.66 47.64 -5 49 C-7.672 46.709 -8.595 45.004 -9.188 41.562 C-9.227 41.346 -9.227 41.346 -9.425 40.248 C-11.735 26.043 -8.942 13.013 -1 1 C-0.67 0.67 -0.34 0.34 0 0 Z " fill="#B47F57" transform="translate(22,34)"/>
<path d="M0 0 C3.3 0.33 6.6 0.66 10 1 C10.33 2.32 10.66 3.64 11 5 C10.807 5.127 10.807 5.127 9.828 5.77 C6.815 7.761 3.853 9.784 1 12 C-0.202 10.798 -0.17 10.367 -0.316 8.715 C-0.358 8.267 -0.4 7.819 -0.443 7.357 C-0.483 6.889 -0.522 6.42 -0.562 5.938 C-0.606 5.465 -0.649 4.993 -0.693 4.506 C-0.8 3.338 -0.902 2.169 -1 1 C-0.67 0.67 -0.34 0.34 0 0 Z " fill="#CA9163" transform="translate(32,25)"/>
<path d="M0 0 C0.33 0 0.66 0 1 0 C2.394 11.679 1.921 20.711 -4 31 C-5.65 31.33 -7.3 31.66 -9 32 C-8.793 31.567 -8.586 31.133 -8.373 30.687 C-7.6 29.063 -6.831 27.437 -6.064 25.811 C-5.733 25.11 -5.4 24.41 -5.066 23.71 C-4.584 22.699 -4.106 21.686 -3.629 20.672 C-3.481 20.364 -3.333 20.057 -3.181 19.74 C-1.66 16.484 -0.934 13.341 -0.684 9.766 C-0.642 9.192 -0.6 8.618 -0.557 8.027 C-0.517 7.441 -0.478 6.854 -0.438 6.25 C-0.394 5.648 -0.351 5.046 -0.307 4.426 C-0.201 2.951 -0.099 1.475 0 0 Z " fill="#4C3236" transform="translate(95,51)"/>
<path d="M0 0 C1.816 -0.506 3.183 -0.53 5 0 C9.342 3.207 12.722 8.837 14 14 C13.943 15.615 13.659 16.501 13 18 C12.89 17.662 12.781 17.325 12.668 16.977 C11.868 14.728 11.326 13.285 9.5 11.688 C8 11 8 11 6 11 C5.734 10.457 5.469 9.915 5.195 9.355 C4.839 8.633 4.482 7.91 4.125 7.188 C3.951 6.831 3.777 6.475 3.598 6.107 C2.531 3.955 1.378 1.968 0 0 Z " fill="#DCC14C" transform="translate(81,31)"/>
<path d="M0 0 C5.28 0 10.56 0 16 0 C15.34 1.32 14.68 2.64 14 4 C9.71 4.99 5.42 5.98 1 7 C0.67 4.69 0.34 2.38 0 0 Z " fill="#FEC62D" transform="translate(40,48)"/>
<path d="M0 0 C0.33 0.99 0.66 1.98 1 3 C0.636 3.075 0.273 3.15 -0.102 3.227 C-4.899 4.481 -8.249 6.927 -11 11 C-13.595 15.531 -15.819 20.259 -18 25 C-19.207 21.24 -18.643 19.314 -16.938 15.789 C-16.628 15.191 -16.316 14.595 -16 14 C-15.732 13.492 -15.464 12.984 -15.188 12.461 C-13.23 9.192 -10.821 6.721 -8 4.188 C-7.668 3.885 -7.336 3.583 -6.993 3.271 C-4.729 1.326 -2.945 0.506 0 0 Z " fill="#CF9660" transform="translate(30,25)"/>
<path d="M0 0 C2.31 0.33 4.62 0.66 7 1 C7 1.99 7 2.98 7 4 C7.66 4 8.32 4 9 4 C9.33 5.65 9.66 7.3 10 9 C10.66 9 11.32 9 12 9 C12 9.66 12 10.32 12 11 C7.962 9.418 3.98 7.72 0 6 C0 4.02 0 2.04 0 0 Z " fill="#FE5137" transform="translate(17,51)"/>
<path d="M0 0 C0.33 0 0.66 0 1 0 C1.035 0.148 1.035 0.148 1.212 0.899 C2.582 6.587 3.962 11.666 7.23 16.562 C8.098 18.183 8.156 19.189 8 21 C7.34 21 6.68 21 6 21 C5.67 21.66 5.34 22.32 5 23 C1.221 14.931 -0.174 8.897 0 0 Z " fill="#8C6152" transform="translate(16,61)"/>
<path d="M0 0 C6.679 -0.995 11.35 1.786 17 5 C17.99 4.34 18.98 3.68 20 3 C20 3.66 20 4.32 20 5 C20.99 5.33 21.98 5.66 23 6 C22.01 7.32 21.02 8.64 20 10 C19.67 9.34 19.34 8.68 19 8 C17.801 7.422 17.801 7.422 16.312 6.965 C15.779 6.795 15.245 6.626 14.695 6.451 C14.416 6.366 14.416 6.366 13 5.938 C11.895 5.595 10.791 5.25 9.688 4.902 C9.196 4.753 8.705 4.603 8.199 4.449 C7 4 7 4 6 3 C4.82 2.771 3.63 2.589 2.438 2.438 C1.797 2.354 1.156 2.27 0.496 2.184 C0.249 2.153 0.249 2.153 -1 2 C-0.67 1.34 -0.34 0.68 0 0 Z " fill="#FE7034" transform="translate(67,70)"/>
<path d="M0 0 C2.31 0.33 4.62 0.66 7 1 C7 1.66 7 2.32 7 3 C7.825 3.33 7.825 3.33 12 5 C12 5.66 12 6.32 12 7 C12.99 7.33 13.98 7.66 15 8 C14.34 8.66 13.68 9.32 13 10 C12.759 9.854 12.518 9.708 12.269 9.557 C3.386 4.232 3.386 4.232 -2 4 C-1.34 2.68 -0.68 1.36 0 0 Z " fill="#FF8737" transform="translate(70,66)"/>
<path d="M0 0 C0 0.66 0 1.32 0 2 C-0.641 1.93 -1.281 1.861 -1.941 1.789 C-9.647 1.214 -9.647 1.214 -13.011 4.097 C-13.843 4.907 -14.635 5.744 -15.43 6.59 C-17.095 8.3 -18.68 8.603 -21 9 C-20.382 6.402 -19.223 4.5 -17 3 C-16.34 3 -15.68 3 -15 3 C-15 2.34 -15 1.68 -15 1 C-9.811 -1.462 -5.47 -0.9 0 0 Z " fill="#BC8864" transform="translate(77,13)"/>
<path d="M0 0 C0.99 0.33 1.98 0.66 3 1 C3 1.66 3 2.32 3 3 C4.98 3.66 6.96 4.32 9 5 C9 6.32 9 7.64 9 9 C5.7 8.67 2.4 8.34 -1 8 C-0.67 5.36 -0.34 2.72 0 0 Z " fill="#FBCF3A" transform="translate(56,28)"/>
<path d="M0 0 C1.65 0.33 3.3 0.66 5 1 C4.551 2.483 4.091 3.96 3.625 5.438 C3.499 5.858 3.372 6.279 3.242 6.713 C3.113 7.116 2.984 7.519 2.852 7.934 C2.736 8.305 2.621 8.677 2.502 9.06 C1.868 10.246 1.23 10.518 0 11 C-0.99 10.01 -1.98 9.02 -3 8 C-2.01 5.36 -1.02 2.72 0 0 Z " fill="#F7904D" transform="translate(89,65)"/>
<path d="M0 0 C0.33 0 0.66 0 1 0 C1 3.3 1 6.6 1 10 C0.01 9.835 0.01 9.835 -5 9 C-5.33 6.69 -5.66 4.38 -6 2 C-5.01 2.165 -5.01 2.165 0 3 C0 2.01 0 1.02 0 0 Z " fill="#FEC82F" transform="translate(78,52)"/>
<path d="M0 0 C0.33 0 0.66 0 1 0 C1.33 2.97 1.66 5.94 2 9 C-0.97 8.67 -3.94 8.34 -7 8 C-6.67 6.35 -6.34 4.7 -6 3 C-4.02 3 -2.04 3 0 3 C0 2.01 0 1.02 0 0 Z " fill="#FCD244" transform="translate(93,52)"/>
<path d="M0 0 C3.368 3.021 5.745 5.597 7 10 C6.613 9.867 6.227 9.734 5.828 9.598 C2.904 8.606 0.008 7.694 -3 7 C-2.417 4.18 -1.727 2.303 0 0 Z " fill="#FF8519" transform="translate(25,32)"/>
<path d="M0 0 C2.31 0.66 4.62 1.32 7 2 C6.34 3.98 5.68 5.96 5 8 C0.421 6.554 0.421 6.554 -0.777 4.977 C-1.312 3.875 -1.312 3.875 -2 2 C-1.34 1.34 -0.68 0.68 0 0 Z " fill="#FEAA3A" transform="translate(82,63)"/>
<path d="M0 0 C0.33 0 0.66 0 1 0 C1 7.59 1 15.18 1 23 C0.67 23 0.34 23 0 23 C-2.801 6.743 -2.801 6.743 0 0 Z " fill="#C89067" transform="translate(10,50)"/>
<path d="M0 0 C0.33 0 0.66 0 1 0 C1.055 0.459 1.111 0.917 1.168 1.389 C1.377 3.114 1.588 4.837 1.8 6.561 C1.89 7.303 1.981 8.045 2.07 8.787 C2.565 12.89 3.087 16.964 4 21 C4.66 21 5.32 21 6 21 C5.67 22.32 5.34 23.64 5 25 C2.327 22.708 1.409 21.005 0.812 17.562 C0.732 17.137 0.652 16.712 0.569 16.274 C-0.341 10.889 -0.183 5.44 0 0 Z " fill="#B68266" transform="translate(12,58)"/>
<path d="M0 0 C7.538 -0.819 12.544 1.177 19 5 C18.67 5.66 18.34 6.32 18 7 C17.312 6.73 16.625 6.459 15.938 6.188 C15.709 6.098 15.709 6.098 14.551 5.645 C13.471 5.196 12.406 4.711 11.355 4.199 C6.981 2.116 3.812 1.605 -1 2 C-0.67 1.34 -0.34 0.68 0 0 Z " fill="#FE6338" transform="translate(64,72)"/>
<path d="M0 0 C0.66 0.33 1.32 0.66 2 1 C1.67 3.31 1.34 5.62 1 8 C-1.64 7.67 -4.28 7.34 -7 7 C-6.216 6.031 -5.432 5.061 -4.625 4.062 C-4.504 3.91 -4.504 3.91 -3.889 3.141 C-2.718 1.714 -1.751 0.646 0 0 Z " fill="#FE923D" transform="translate(41,30)"/>
<path d="M0 0 C4.139 0.131 6.955 0.528 9.938 3.562 C10.641 4.361 11.335 5.169 12 6 C11.67 7.32 11.34 8.64 11 10 C11 9.01 11 8.02 11 7 C9.68 6.67 8.36 6.34 7 6 C6.67 5.01 6.34 4.02 6 3 C4.35 3 2.7 3 1 3 C0.67 2.01 0.34 1.02 0 0 Z " fill="#FEC64A" transform="translate(76,45)"/>
<path d="M0 0 C0.33 0 0.66 0 1 0 C1 1.65 1 3.3 1 5 C-2.3 5.66 -5.6 6.32 -9 7 C-9.33 7.99 -9.66 8.98 -10 10 C-11 9 -11 9 -11.098 7.809 C-11.086 7.356 -11.074 6.904 -11.062 6.438 C-11.053 5.982 -11.044 5.527 -11.035 5.059 C-11.024 4.709 -11.012 4.36 -11 4 C-10.729 3.97 -10.729 3.97 -9.355 3.816 C-8.633 3.732 -7.91 3.647 -7.188 3.562 C-6.831 3.523 -6.475 3.484 -6.107 3.443 C-3.959 3.187 -2.039 2.766 0 2 C0 1.34 0 0.68 0 0 Z " fill="#966952" transform="translate(54,31)"/>
<path d="M0 0 C0.33 0 0.66 0 1 0 C1 1.98 1 3.96 1 6 C1.99 6.165 1.99 6.165 7 7 C6.67 8.32 6.34 9.64 6 11 C4.02 11 2.04 11 0 11 C0 7.37 0 3.74 0 0 Z " fill="#F9A333" transform="translate(72,55)"/>
<path d="M0 0 C0.33 0.66 0.66 1.32 1 2 C1.973 2.414 1.973 2.414 3.062 2.625 C3.702 2.749 4.341 2.873 5 3 C5 4.65 5 6.3 5 8 C4.01 7.835 4.01 7.835 -1 7 C-0.67 4.69 -0.34 2.38 0 0 Z " fill="#FE612D" transform="translate(18,44)"/>
<path d="M0 0 C0.99 0.33 1.98 0.66 3 1 C2.887 1.09 2.887 1.09 2.313 1.547 C-2.253 5.232 -6.004 8.324 -8 14 C-9.105 11.355 -9.105 11.355 -8.652 9.824 C-6.267 6.031 -3.243 3.054 0 0 Z " fill="#C28D5B" transform="translate(26,28)"/>
<path d="M0 0 C2.31 0.33 4.62 0.66 7 1 C5.35 2.98 3.7 4.96 2 7 C1.34 6.67 0.68 6.34 0 6 C0 4.02 0 2.04 0 0 Z " fill="#AC794E" transform="translate(32,30)"/>
<path d="M0 0 C-0.66 1.32 -1.32 2.64 -2 4 C-4.31 4.33 -6.62 4.66 -9 5 C-9.33 4.01 -9.66 3.02 -10 2 C-8.897 1.662 -7.793 1.33 -6.688 1 C-6.073 0.814 -5.458 0.629 -4.824 0.438 C-3.131 0.031 -1.731 -0.085 0 0 Z " fill="#FACB3B" transform="translate(56,48)"/>
<path d="M0 0 C1.758 0.063 2.513 0.116 4 1 C5.579 3.219 6.802 5.559 8 8 C7.67 8.66 7.34 9.32 7 10 C5.825 8.715 4.662 7.421 3.5 6.125 C3.166 5.76 2.832 5.395 2.488 5.02 C2.172 4.665 1.857 4.311 1.531 3.945 C1.238 3.621 0.945 3.296 0.643 2.961 C0 2 0 2 0 0 Z " fill="#805A4D" transform="translate(73,20)"/>
<path d="M0 0 C0.983 0.451 1.961 0.911 2.938 1.375 C3.21 1.503 3.21 1.503 4.59 2.148 C6 3 6 3 7 5 C8.65 5.33 10.3 5.66 12 6 C12.33 6.99 12.66 7.98 13 9 C10.233 9.428 7.951 9.641 5.559 8.027 C3.083 5.611 1.304 3.2 0 0 Z " fill="#EFA559" transform="translate(70,42)"/>
<path d="M0 0 C-0.33 0.99 -0.66 1.98 -1 3 C-3.64 3 -6.28 3 -9 3 C-9 4.98 -9 6.96 -9 9 C-9.33 9 -9.66 9 -10 9 C-10 6.36 -10 3.72 -10 1 C-9.361 0.918 -9.361 0.918 -6.125 0.5 C-5.726 0.448 -5.326 0.396 -4.915 0.342 C-3.255 0.131 -1.676 0 0 0 Z " fill="#B57E59" transform="translate(52,30)"/>
<path d="M0 0 C3.643 0.299 5.753 1.221 8.219 3.945 C9.172 5.232 9.686 6.43 10 8 C8.625 7.688 8.625 7.688 7 7 C6.856 6.752 6.856 6.752 6.125 5.5 C4.629 3.505 3.407 3.465 1.023 3.113 C0.855 3.095 0.855 3.095 0 3 C0 2.01 0 1.02 0 0 Z " fill="#9D705C" transform="translate(71,17)"/>
<path d="M0 0 C0 3.3 0 6.6 0 10 C-0.99 8.68 -1.98 7.36 -3 6 C-4.688 4.75 -4.688 4.75 -6 4 C-5.19 3.33 -4.377 2.664 -3.562 2 C-3.11 1.629 -2.658 1.258 -2.191 0.875 C-1 0 -1 0 0 0 Z " fill="#F9A820" transform="translate(32,27)"/>
<path d="M0 0 C0.33 0.66 0.66 1.32 1 2 C-2.169 7.888 -2.169 7.888 -5 9 C-7.344 9.152 -9.655 9.116 -12 9 C-12 8.34 -12 7.68 -12 7 C-11.795 7.006 -11.795 7.006 -10.758 7.035 C-10.219 7.044 -9.68 7.053 -9.125 7.062 C-8.591 7.074 -8.058 7.086 -7.508 7.098 C-6.016 7.001 -5.214 6.854 -4 6 C-3.375 4.438 -3.375 4.438 -3 3 C-2.34 3 -1.68 3 -1 3 C-0.67 2.01 -0.34 1.02 0 0 Z " fill="#BB8665" transform="translate(55,22)"/>
<path d="M0 0 C1.32 0.99 2.64 1.98 4 3 C3.75 4.812 3.75 4.812 3 7 C1.68 7.99 0.36 8.98 -1 10 C-0.67 6.7 -0.34 3.4 0 0 Z " fill="#F7915A" transform="translate(80,56)"/>
<path d="M0 0 C1.149 0.282 2.293 0.575 3.438 0.875 C4.076 1.037 4.714 1.2 5.371 1.367 C7 2 7 2 7.723 3.07 C7.814 3.377 7.906 3.684 8 4 C7.01 4.99 6.02 5.98 5 7 C4.161 6.215 3.329 5.421 2.5 4.625 C2.036 4.184 1.572 3.743 1.094 3.289 C0 2 0 2 0 0 Z " fill="#FAD844" transform="translate(65,43)"/>
<path d="M0 0 C3.418 1.465 5.462 3.28 8 6 C6.02 6 4.04 6 2 6 C0.405 3.907 -0.252 2.647 0 0 Z " fill="#FCAC20" transform="translate(40,38)"/>
<path d="M0 0 C2.97 0 5.94 0 9 0 C9 0.99 9 1.98 9 3 C6.03 2.67 3.06 2.34 0 2 C0 1.34 0 0.68 0 0 Z " fill="#BC875E" transform="translate(32,28)"/>
<path d="M0 0 C4.83 0.464 8.795 2.757 13 5 C12.34 5.66 11.68 6.32 11 7 C7.37 5.02 3.74 3.04 0 1 C0 0.67 0 0.34 0 0 Z " fill="#FE7D3A" transform="translate(72,69)"/>
<path d="M0 0 C1.65 0 3.3 0 5 0 C4.67 1.65 4.34 3.3 4 5 C2.35 4.67 0.7 4.34 -1 4 C-0.67 2.68 -0.34 1.36 0 0 Z " fill="#F9B747" transform="translate(90,61)"/>
<path d="M0 0 C2.56 2.56 3.874 5.172 4.125 8.812 C4.084 9.204 4.043 9.596 4 10 C3.01 10.33 2.02 10.66 1 11 C0.67 7.37 0.34 3.74 0 0 Z " fill="#A17163" transform="translate(17,75)"/>
<path d="M0 0 C2.787 0.48 4.544 1.052 6.473 3.168 C7.285 4.45 7.209 5.535 7 7 C3.182 5.552 1.814 3.6 0 0 Z " fill="#FD9A18" transform="translate(26,32)"/>
<path d="M0 0 C1.65 0 3.3 0 5 0 C5.667 3.333 6.333 6.667 7 10 C4.339 6.826 2.029 3.612 0 0 Z " fill="#846048" transform="translate(81,31)"/>
<path d="M0 0 C0.052 0.155 0.052 0.155 0.312 0.938 C1.274 2.423 2.333 2.565 4 3 C3.01 4.32 2.02 5.64 1 7 C0.67 6.34 0.34 5.68 0 5 C-1.562 3.875 -1.562 3.875 -3 3 C-2.01 2.01 -1.02 1.02 0 0 Z " fill="#F16650" transform="translate(86,73)"/>
<path d="M0 0 C0.33 0.99 0.66 1.98 1 3 C1.99 3.33 2.98 3.66 4 4 C3.01 4.99 2.02 5.98 1 7 C0.01 6.01 -0.98 5.02 -2 4 C-1.34 2.68 -0.68 1.36 0 0 Z " fill="#F67E4E" transform="translate(88,69)"/>
<path d="M0 0 C1.65 1.65 3.3 3.3 5 5 C4.67 5.99 4.34 6.98 4 8 C2.35 6.68 0.7 5.36 -1 4 C-0.67 2.68 -0.34 1.36 0 0 Z " fill="#FE8D18" transform="translate(25,32)"/>
<path d="M0 0 C1.01 1.326 2.006 2.662 3 4 C3.392 4.516 3.784 5.031 4.188 5.562 C5.107 7.189 5.175 8.161 5 10 C4.34 10 3.68 10 3 10 C-0.444 3.85 -0.444 3.85 0 0 Z " fill="#765248" transform="translate(19,72)"/>
<path d="M0 0 C1.65 0 3.3 0 5 0 C5 1.32 5 2.64 5 4 C3.35 3.67 1.7 3.34 0 3 C0 2.01 0 1.02 0 0 Z " fill="#FEBD2C" transform="translate(74,58)"/>
<path d="M0 0 C1.32 0.66 1.32 0.66 8 4 C7.34 4.66 6.68 5.32 6 6 C5.181 5.574 4.37 5.134 3.562 4.688 C3.11 4.444 2.658 4.2 2.191 3.949 C1 3 1 3 0 0 Z " fill="#FE9D3A" transform="translate(80,65)"/>
<path d="M0 0 C0.66 0.33 1.32 0.66 2 1 C1.67 3.31 1.34 5.62 1 8 C-0.32 6.68 -1.64 5.36 -3 4 C-2.262 1.169 -2.262 1.169 -0.938 0.312 C-0.783 0.261 -0.783 0.261 0 0 Z " fill="#F9AA40" transform="translate(41,30)"/>
<path d="M0 0 C2.31 0.66 4.62 1.32 7 2 C7 2.99 7 3.98 7 5 C5.02 4.34 3.04 3.68 1 3 C0.67 2.01 0.34 1.02 0 0 Z " fill="#FF583F" transform="translate(72,75)"/>
<path d="M0 0 C1.98 0 3.96 0 6 0 C6.33 0.66 6.66 1.32 7 2 C6.67 2.66 6.34 3.32 6 4 C4.68 3.67 3.36 3.34 2 3 C2 2.34 2 1.68 2 1 C1.34 0.67 0.68 0.34 0 0 Z " fill="#FE8D3C" transform="translate(80,70)"/>
<path d="M0 0 C0.66 0 1.32 0 2 0 C2.33 1.98 2.66 3.96 3 6 C1.68 5.67 0.36 5.34 -1 5 C-0.67 3.35 -0.34 1.7 0 0 Z " fill="#FECE3C" transform="translate(87,55)"/>
<path d="M0 0 C0.825 0.33 0.825 0.33 5 2 C4.67 3.32 4.34 4.64 4 6 C3.327 5.381 2.662 4.755 2 4.125 C1.629 3.777 1.257 3.429 0.875 3.07 C0 2 0 2 0 0 Z " fill="#FAA154" transform="translate(80,54)"/>
<path d="M0 0 C0.99 0.33 1.98 0.66 3 1 C3 2.32 3 3.64 3 5 C3.99 5.33 4.98 5.66 6 6 C4.35 6.33 2.7 6.66 1 7 C0.67 4.69 0.34 2.38 0 0 Z " fill="#F9B931" transform="translate(40,48)"/>
<path d="M0 0 C0.99 0.33 1.98 0.66 3 1 C3 3.31 3 5.62 3 8 C2.34 7.01 1.68 6.02 1 5 C0.34 5 -0.32 5 -1 5 C-0.67 3.35 -0.34 1.7 0 0 Z " fill="#FD7524" transform="translate(21,38)"/>
<path d="M0 0 C0.66 0 1.32 0 2 0 C1.67 2.31 1.34 4.62 1 7 C0.67 6.34 0.34 5.68 0 5 C-0.66 4.67 -1.32 4.34 -2 4 C-1.34 2.68 -0.68 1.36 0 0 Z " fill="#492D38" transform="translate(94,67)"/>
<path d="M0 0 C0.99 0.165 0.99 0.165 6 1 C6 2.65 6 4.3 6 6 C5.67 5.34 5.34 4.68 5 4 C4.34 4 3.68 4 3 4 C3 3.34 3 2.68 3 2 C2.01 1.67 1.02 1.34 0 1 C0 0.67 0 0.34 0 0 Z " fill="#FDB84F" transform="translate(81,51)"/>
<path d="M0 0 C0.33 0.66 0.66 1.32 1 2 C0.547 2.649 0.087 3.294 -0.375 3.938 C-0.63 4.297 -0.885 4.657 -1.148 5.027 C-2.038 6.043 -2.764 6.489 -4 7 C-3.506 2.535 -3.506 2.535 -2.266 1.223 C-1.438 0.688 -1.438 0.688 0 0 Z " fill="#B1805D" transform="translate(59,20)"/>
<path d="M0 0 C2.31 0.66 4.62 1.32 7 2 C7 2.99 7 3.98 7 5 C5.845 4.34 5.845 4.34 0 1 C0 0.67 0 0.34 0 0 Z " fill="#FF733C" transform="translate(75,72)"/>
<path d="M0 0 C1.65 0.33 3.3 0.66 5 1 C4.67 1.99 4.34 2.98 4 4 C2.35 3.67 0.7 3.34 -1 3 C-0.67 2.01 -0.34 1.02 0 0 Z " fill="#F8A249" transform="translate(89,65)"/>
<path d="M0 0 C1.65 0 3.3 0 5 0 C5.66 1.65 6.32 3.3 7 5 C6.175 4.67 6.175 4.67 2 3 C2 2.34 2 1.68 2 1 C1.34 0.67 0.68 0.34 0 0 Z " fill="#FFA718" transform="translate(35,38)"/>
<path d="M0 0 C1.98 0 3.96 0 6 0 C5.361 0.268 4.721 0.536 4.062 0.812 C2.379 1.639 2.074 1.84 1.25 3.625 C1.167 4.079 1.085 4.532 1 5 C0.67 3.35 0.34 1.7 0 0 Z " fill="#86594E" transform="translate(43,36)"/>
<path d="M0 0 C1.32 0.33 2.64 0.66 4 1 C4.33 1.99 4.66 2.98 5 4 C4.01 4.33 3.02 4.66 2 5 C1.34 3.35 0.68 1.7 0 0 Z " fill="#8A6251" transform="translate(73,20)"/>
<path d="M0 0 C1.32 0.33 2.64 0.66 4 1 C4 1.66 4 2.32 4 3 C2.02 3.33 0.04 3.66 -2 4 C-1.34 2.68 -0.68 1.36 0 0 Z " fill="#FD862E" transform="translate(70,66)"/>
<path d="M0 0 C2.31 0.33 4.62 0.66 7 1 C6.67 1.66 6.34 2.32 6 3 C4.35 3 2.7 3 1 3 C0.67 2.01 0.34 1.02 0 0 Z " fill="#FEB63A" transform="translate(83,62)"/>
<path d="M0 0 C2.286 4.143 2.286 4.143 2 7 C1.01 7 0.02 7 -1 7 C-0.67 4.69 -0.34 2.38 0 0 Z " fill="#ED5F38" transform="translate(18,44)"/>
<path d="M0 0 C0.66 0.33 1.32 0.66 2 1 C2 2.65 2 4.3 2 6 C0.68 5.01 -0.64 4.02 -2 3 C-2 2.34 -2 1.68 -2 1 C-1.34 0.67 -0.68 0.34 0 0 Z " fill="#FEA41E" transform="translate(29,47)"/>
<path d="M0 0 C1.32 0 2.64 0 4 0 C3.716 0.649 3.423 1.294 3.125 1.938 C2.963 2.297 2.8 2.657 2.633 3.027 C2 4 2 4 0 5 C0 3.35 0 1.7 0 0 Z " fill="#986744" transform="translate(33,32)"/>
<path d="M0 0 C0.33 0.99 0.66 1.98 1 3 C1.66 3 2.32 3 3 3 C2.67 4.32 2.34 5.64 2 7 C1.34 6.67 0.68 6.34 0 6 C0 4.02 0 2.04 0 0 Z " fill="#AF7B6A" transform="translate(15,76)"/>
<path d="M0 0 C4.152 1.875 4.152 1.875 5 4 C4.01 4.33 3.02 4.66 2 5 C1.34 3.35 0.68 1.7 0 0 Z " fill="#DBC053" transform="translate(85,32)"/>
<path d="M0 0 C0.66 0 1.32 0 2 0 C2.33 1.65 2.66 3.3 3 5 C2.01 4.67 1.02 4.34 0 4 C0 2.68 0 1.36 0 0 Z " fill="#FD5B33" transform="translate(35,60)"/>
<path d="M0 0 C0.99 0.165 0.99 0.165 6 1 C5.67 1.99 5.34 2.98 5 4 C4.175 3.67 4.175 3.67 0 2 C0 1.34 0 0.68 0 0 Z " fill="#F6D74C" transform="translate(65,43)"/>
<path d="M0 0 C1.65 0 3.3 0 5 0 C5 0.99 5 1.98 5 3 C4.175 2.67 4.175 2.67 0 1 C0 0.67 0 0.34 0 0 Z " fill="#FD6441" transform="translate(77,76)"/>
<path d="M0 0 C0.99 0 1.98 0 3 0 C2.34 1.32 1.68 2.64 1 4 C0.34 3.67 -0.32 3.34 -1 3 C-0.67 2.01 -0.34 1.02 0 0 Z " fill="#F3C64B" transform="translate(53,48)"/>
<path d="M0 0 C0.99 0.33 1.98 0.66 3 1 C3.33 2.32 3.66 3.64 4 5 C3.34 5 2.68 5 2 5 C1.34 3.35 0.68 1.7 0 0 Z " fill="#A87669" transform="translate(78,19)"/>
<path d="M0 0 C0.66 0.33 1.32 0.66 2 1 C1.34 2.32 0.68 3.64 0 5 C-1.108 2.292 -1.108 2.292 -0.562 0.812 C-0.377 0.544 -0.191 0.276 0 0 Z " fill="#F37C64" transform="translate(80,61)"/>
<path d="M0 0 C0 0.99 0 1.98 0 3 C-1.32 2.67 -2.64 2.34 -4 2 C-2.25 0 -2.25 0 0 0 Z " fill="#FFB62F" transform="translate(79,59)"/>
<path d="M0 0 C0.99 0.99 1.98 1.98 3 3 C1.68 3 0.36 3 -1 3 C-0.67 2.01 -0.34 1.02 0 0 Z " fill="#FCC544" transform="translate(91,58)"/>
<path d="M0 0 C0.66 0.33 1.32 0.66 2 1 C2 1.66 2 2.32 2 3 C1.01 3.33 0.02 3.66 -1 4 C-0.67 2.68 -0.34 1.36 0 0 Z " fill="#FA8120" transform="translate(23,35)"/>
<path d="M0 0 C0.66 0.33 0.66 0.33 4 2 C3.01 2.33 2.02 2.66 1 3 C0.67 2.01 0.34 1.02 0 0 Z " fill="#F4A336" transform="translate(51,46)"/>
<path d="M0 0 C0.66 0.33 1.32 0.66 2 1 C2 1.66 2 2.32 2 3 C1.01 3 0.02 3 -1 3 C-0.67 2.01 -0.34 1.02 0 0 Z " fill="#F58F22" transform="translate(25,32)"/>
<path d="" fill="#FF4836" transform="translate(0,0)"/>
<path d="" fill="#FF5434" transform="translate(0,0)"/>
</svg>
