<?xml version="1.0" encoding="UTF-8"?>
<!-- Generator: visioncortex VTracer 0.6.12 -->
<svg version="1.1" xmlns="http://www.w3.org/2000/svg" width="64" height="64">
<path d="M0 0 C3.528 2.607 4.789 4.172 5.875 8.438 C5.994 11.815 5.723 14.707 5 18 C5.804 18.619 6.609 19.238 7.438 19.875 C10 22 10 22 11 24 C11.294 27.598 11.278 31.204 11.312 34.812 C11.342 35.811 11.371 36.809 11.4 37.838 C11.464 45.231 11.464 45.231 9.105 49.137 C4.94 52.823 1.023 52.253 -4.312 52.312 C-5.168 52.342 -6.023 52.371 -6.904 52.4 C-11.124 52.443 -13.385 52.383 -17.043 50.105 C-20.441 46.45 -20.091 43.897 -20 39 C-20.907 39.062 -21.815 39.124 -22.75 39.188 C-26.422 38.976 -27.461 38.588 -30 36 C-30.531 33.188 -30.531 33.188 -30.5 30 C-30.51 28.948 -30.521 27.896 -30.531 26.812 C-30 24 -30 24 -28.254 22.16 C-25.822 20.908 -24.154 20.58 -21.438 20.438 C-17.954 20.244 -17.058 20.039 -14 18 C-14.119 17.276 -14.237 16.551 -14.359 15.805 C-15.416 7.879 -15.416 7.879 -13.312 3.438 C-8.94 -1.171 -6.273 -1.651 0 0 Z " fill="#2A2018" transform="translate(37,6)"/>
<path d="M0 0 C0.842 -0.003 1.684 -0.005 2.551 -0.008 C2.991 -0.004 2.991 -0.004 5.219 0.016 C6.099 0.008 6.98 0 7.887 -0.008 C8.728 -0.005 9.57 -0.003 10.438 0 C10.824 0.001 10.824 0.001 12.779 0.007 C14.719 0.266 14.719 0.266 16.719 2.266 C16.978 4.48 16.978 4.48 16.984 7.203 C16.986 7.692 16.986 7.692 16.992 10.164 C16.984 11.188 16.977 12.211 16.969 13.266 C16.976 14.289 16.984 15.313 16.992 16.367 C16.99 17.344 16.987 18.321 16.984 19.328 C16.982 20.227 16.98 21.125 16.978 22.051 C16.719 24.266 16.719 24.266 14.719 26.266 C12.779 26.524 12.779 26.524 10.438 26.531 C9.596 26.534 8.754 26.536 7.887 26.539 C7.006 26.531 6.126 26.524 5.219 26.516 C4.779 26.519 4.779 26.519 2.551 26.539 C1.709 26.536 0.867 26.534 0 26.531 C-0.773 26.529 -1.546 26.527 -2.342 26.524 C-4.281 26.266 -4.281 26.266 -6.281 24.266 C-6.54 22.051 -6.54 22.051 -6.547 19.328 C-6.549 18.351 -6.552 17.374 -6.555 16.367 C-6.547 15.344 -6.539 14.32 -6.531 13.266 C-6.539 12.242 -6.547 11.219 -6.555 10.164 C-6.552 9.187 -6.55 8.21 -6.547 7.203 C-6.545 6.305 -6.542 5.406 -6.54 4.48 C-6.042 0.221 -3.741 0.011 0 0 Z " fill="#FF961E" transform="translate(27.28125,27.734375)"/>
<path d="M0 0 C3.438 0.812 3.438 0.812 5.438 3.812 C5.25 7.375 5.25 7.375 4.438 10.812 C1.438 12.812 1.438 12.812 -2.125 12.625 C-5.562 11.812 -5.562 11.812 -7.562 8.812 C-7.375 5.25 -7.375 5.25 -6.562 1.812 C-3.562 -0.188 -3.562 -0.188 0 0 Z " fill="#FF961E" transform="translate(33.5625,9.1875)"/>
<path d="M0 0 C2.31 0 4.62 0 7 0 C7 3.3 7 6.6 7 10 C4.69 10 2.38 10 0 10 C0 6.7 0 3.4 0 0 Z " fill="#FF961E" transform="translate(11,31)"/>
</svg>
